<svg width="853" height="244" viewBox="0 0 853 244" fill="none" xmlns="http://www.w3.org/2000/svg">
<path d="M532.721 83.5195C537.12 83.5196 541.24 84.0401 545.08 85.0801C548.92 86.0401 552.6 87.4804 556.12 89.4004L556.601 105.12H553.36L548.32 95.6396C547.52 94.0399 546.641 92.6001 545.681 91.3203C544.801 90.0403 543.64 89.1196 542.2 88.5596C540.2 87.5997 537.84 87.1201 535.12 87.1201C530.4 87.1202 526.08 88.3198 522.16 90.7197C518.32 93.1197 515.24 97.1198 512.92 102.72C510.6 108.24 509.44 115.8 509.44 125.4C509.44 134.92 510.521 142.48 512.681 148.08C514.921 153.68 517.921 157.68 521.681 160.08C525.441 162.4 529.681 163.56 534.4 163.56C536.56 163.56 538.321 163.4 539.681 163.08C541.041 162.76 542.401 162.32 543.761 161.76C545.361 161.12 546.601 160.2 547.48 159C548.36 157.72 549.121 156.28 549.761 154.68L554.32 143.76H557.561L557.08 161.04C553.64 162.96 549.841 164.44 545.681 165.48C541.521 166.52 537 167.04 532.12 167.04C524.36 167.04 517.36 165.44 511.12 162.24C504.88 159.04 499.92 154.32 496.24 148.08C492.64 141.84 490.841 134.24 490.841 125.28C490.841 118.56 491.92 112.6 494.08 107.4C496.32 102.2 499.36 97.8403 503.2 94.3203C507.12 90.7203 511.601 88.0403 516.641 86.2803C521.681 84.4403 527.041 83.5195 532.721 83.5195ZM316.8 88.2002L314.28 89.04C312.44 89.6 311.24 90.4004 310.68 91.4404C310.2 92.4803 310.2 93.9202 310.68 95.7598L323.76 144.96L338.04 102.36L335.88 95.4004C335.32 93.7204 334.76 92.4396 334.2 91.5596C333.64 90.5998 332.72 89.8402 331.44 89.2803L328.8 88.2002V85.6797H358.2V88.2002L354.84 89.2803C353.24 89.8402 352.32 90.6399 352.08 91.6797C351.84 92.7196 352 94.12 352.56 95.8799L367.68 145.68L381.6 96.5996C382.16 94.7597 382.32 93.1597 382.08 91.7998C381.84 90.4399 380.8 89.4799 378.96 88.9199L376.56 88.2002V85.6797H394.32V88.2002L391.32 89.1602C389.72 89.7201 388.56 90.5598 387.84 91.6797C387.2 92.7197 386.64 94.1199 386.16 95.8799L366.48 165.48H358.2L340.44 109.56L321.84 165.48H313.56L292.8 94.7998C292.24 93.0399 291.6 91.7198 290.88 90.8398C290.16 89.9599 288.96 89.2397 287.28 88.6797L285.84 88.2002V85.6797H316.8V88.2002ZM456.228 104.88H452.868L448.067 94.0801C447.427 92.5601 446.708 91.3996 445.908 90.5996C445.108 89.7196 443.908 89.2803 442.308 89.2803H421.908C421.828 94.2401 421.788 99.3599 421.788 104.64V122.28H433.668C435.268 122.28 436.468 121.88 437.268 121.08C438.148 120.2 438.948 119.04 439.668 117.6L441.708 113.04H444.348V135.24H441.708L439.548 130.68C438.908 129.24 438.188 128.08 437.388 127.2C436.588 126.32 435.388 125.88 433.788 125.88H421.788V151.92C421.868 155.12 421.908 158.28 421.908 161.4H444.948C446.548 161.4 447.788 161 448.668 160.2C449.548 159.32 450.268 158.12 450.828 156.6L455.268 145.8H458.628L457.788 165H398.268V162.48L400.668 161.64C402.108 161.24 403.108 160.56 403.668 159.6C404.228 158.56 404.548 157.16 404.628 155.4V95.04C404.548 93.3602 404.268 92.0802 403.788 91.2002C403.308 90.2402 402.308 89.52 400.788 89.04L398.268 88.2002V85.6797H455.388L456.228 104.88ZM628.559 155.88C629.199 157.64 629.919 159 630.719 159.96C631.519 160.84 632.799 161.56 634.559 162.12L636.359 162.6V165H605.879V162.6L607.919 162C609.679 161.44 610.719 160.56 611.039 159.36C611.439 158.16 611.359 156.68 610.799 154.92L605.759 139.44H579.239L574.079 154.68C573.519 156.44 573.359 157.88 573.599 159C573.839 160.12 574.839 161 576.599 161.64L579.239 162.48V165H560.879V162.48L564.119 161.52C565.799 161.04 567.079 160.32 567.959 159.36C568.919 158.4 569.679 157.08 570.239 155.4L594.479 85.3203H604.439L628.559 155.88ZM673.743 85.6797C683.103 85.6797 690.303 87.4801 695.343 91.0801C700.463 94.6001 703.022 99.56 703.022 105.96C703.022 109.48 701.623 113.04 698.823 116.64C696.103 120.24 691.903 123 686.223 124.92L702.543 156.72C703.903 159.36 706.023 161.16 708.902 162.12L711.183 162.6V165H689.942L672.062 127.56H663.423V142.92C663.423 147.48 663.463 151.76 663.543 155.76C663.543 157.36 663.783 158.64 664.263 159.6C664.823 160.56 665.863 161.24 667.383 161.64L670.263 162.48V165H640.143V162.48L642.663 161.76C644.263 161.28 645.263 160.6 645.663 159.72C646.143 158.76 646.383 157.44 646.383 155.76C646.463 151.12 646.503 146.48 646.503 141.84V108.96C646.503 104.32 646.463 99.68 646.383 95.04C646.383 93.3602 646.183 92.0802 645.783 91.2002C645.383 90.2403 644.383 89.52 642.783 89.04L640.143 88.2002V85.6797H673.743ZM748.743 85.6797C758.103 85.6797 765.303 87.4801 770.343 91.0801C775.463 94.6001 778.022 99.56 778.022 105.96C778.022 109.48 776.623 113.04 773.823 116.64C771.103 120.24 766.903 123 761.223 124.92L777.543 156.72C778.903 159.36 781.023 161.16 783.902 162.12L786.183 162.6V165H764.942L747.062 127.56H738.423V142.92C738.423 147.48 738.463 151.76 738.543 155.76C738.543 157.36 738.783 158.64 739.263 159.6C739.823 160.56 740.863 161.24 742.383 161.64L745.263 162.48V165H715.143V162.48L717.663 161.76C719.263 161.28 720.263 160.6 720.663 159.72C721.143 158.76 721.383 157.44 721.383 155.76C721.463 151.12 721.503 146.48 721.503 141.84V108.96C721.503 104.32 721.463 99.68 721.383 95.04C721.383 93.3602 721.183 92.0802 720.783 91.2002C720.383 90.2403 719.383 89.52 717.783 89.04L715.143 88.2002V85.6797H748.743ZM814.286 88.2002L812.126 88.9199C810.366 89.4799 809.406 90.3999 809.246 91.6797C809.086 92.8797 809.446 94.4404 810.326 96.3604L824.006 126.6L838.767 95.5195C839.486 94.0798 839.806 92.68 839.727 91.3203C839.647 89.9603 838.806 89.0797 837.206 88.6797L835.526 88.2002V85.6797H851.246V88.2002L848.847 88.9199C847.247 89.3999 846.086 90.1201 845.366 91.0801C844.726 92.0401 844.046 93.32 843.326 94.9199L826.646 129.6V155.76C826.646 159.04 828.086 161 830.966 161.64L834.566 162.48V165H801.446V162.48L804.926 161.64C806.526 161.24 807.646 160.56 808.286 159.6C808.926 158.64 809.286 157.36 809.366 155.76V134.04L790.046 94.5596C789.246 92.9599 788.486 91.7599 787.767 90.96C787.047 90.16 786.006 89.52 784.646 89.04L782.486 88.2002V85.6797H814.286V88.2002ZM580.439 135.96H604.679L592.919 99.8398L580.439 135.96ZM663.543 89.1602C663.543 92.28 663.503 95.4799 663.423 98.7598V124.08H669.902C675.582 124.08 679.743 122.64 682.383 119.76C685.023 116.88 686.343 112.479 686.343 106.56C686.343 100.64 685.063 96.2804 682.503 93.4805C680.023 90.6005 675.983 89.1602 670.383 89.1602H663.543ZM738.543 89.1602C738.543 92.28 738.503 95.4799 738.423 98.7598V124.08H744.902C750.582 124.08 754.743 122.64 757.383 119.76C760.023 116.88 761.343 112.479 761.343 106.56C761.343 100.64 760.063 96.2804 757.503 93.4805C755.023 90.6005 750.983 89.1602 745.383 89.1602H738.543Z" fill="url(#paint0_radial_362_78)"/>
<path d="M112.786 0.168724C117.399 -0.100391 129.433 -0.0334562 133.679 0.26931C144.142 1.00947 157.212 4.13819 168.276 8.5115C176.299 11.6738 185.592 16.6868 192.512 21.5984C196.991 24.7605 198.696 26.1734 204.178 31.1521C226.34 51.4714 238.91 76.1976 243.355 108.258C244.124 113.64 244.224 130.091 243.556 135.676C242.285 146.138 239.511 157.172 235.9 166.121C232.491 174.565 226.44 185.666 221.059 193.303C213.972 203.361 203.242 214.16 193.013 221.494C178.438 231.99 160.588 239.324 142.035 242.453C134.18 243.765 131.138 244.001 121.645 244.001C112.285 243.967 110.212 243.832 101.922 242.453C75.8481 238.18 52.4822 225.935 34.3643 207.095C15.979 187.954 4.91362 165.112 0.768555 137.694C0.100003 133.22 1.81349e-06 131.403 0 121.715C0 110.31 0.267756 106.946 1.83887 98.5017C6.41852 74.2464 18.6529 51.3701 36.4365 33.8767C51.4456 19.1419 69.8983 8.94867 91.5596 3.4988C99.5486 1.51404 105.499 0.572413 112.786 0.168724ZM135.517 13.7263C131.672 13.2217 113.655 13.0199 110.111 13.4236C106.3 13.8274 98.6789 15.2401 94.5674 16.283C72.4049 21.9347 52.4821 34.5164 37.8408 52.0769C32.2918 58.7379 28.2799 64.9614 24.2686 73.2371L21.7285 78.4177L22.4971 79.0232C22.8982 79.3596 23.8012 79.797 24.4697 79.9988C26.8436 80.6717 38.1082 83.3293 40.916 83.9011C42.4871 84.2039 43.7908 84.474 43.8242 84.5076C43.86 84.5527 44.361 86.7681 44.9277 89.4187C46.3317 96.2142 48.2699 103.481 50.2422 109.705C51.1779 112.597 51.947 115.221 51.9473 115.524C51.9473 115.894 51.1444 115.49 49.2725 114.178C38.4418 106.542 23.1318 99.5115 17.3154 99.5115C16.146 99.5115 15.7448 99.6793 15.3438 100.318C13.0372 103.85 12.3689 128.072 14.3076 139.006C18.4527 162.689 28.2466 181.899 44.5928 198.45C50.8437 204.774 54.9554 208.206 61.6074 212.68C76.0483 222.369 93.3645 228.189 99.2812 225.296C101.22 224.387 102.858 222.47 103.794 220.082C105.231 216.28 104.897 206.053 102.958 195.456C102.557 193.202 102.29 191.351 102.356 191.351C102.424 191.352 104.33 193.101 106.535 195.254C115.594 203.933 115.393 203.092 104.83 187.584C83.102 155.658 72.7392 136.886 62.1426 110.074C60.5715 106.172 59.2678 102.472 59.2344 101.866C59.1341 100.79 59.2345 100.655 60.9727 99.7468C69.0288 95.4744 72.3383 93.6235 72.2715 93.4217C72.2014 93.2846 69.3278 90.9643 65.8867 88.241C62.4511 85.522 59.6809 83.2386 59.7354 83.1619C59.8022 83.0946 61.7081 82.2865 64.0146 81.3445C66.2878 80.4025 71.0678 78.0814 74.6445 76.2312C78.9213 74.0119 81.1943 73.0029 81.3633 73.2371C81.4636 73.4389 82.2998 77.0721 83.1689 81.2771C87.8488 103.85 92.6293 122.32 98.8135 142.067C104.596 160.435 115.125 188.526 120.574 200.098L122.079 203.295L123.817 199.594C129.099 188.357 140.732 157.34 146.181 139.981C151.362 123.497 157.58 98.8042 161.29 80.0662C162.058 76.1674 162.826 72.9401 162.994 72.9343C163.161 72.9343 164.9 73.8095 166.872 74.9197C171.986 77.7455 178.037 80.7389 181.246 82.0174C183.519 82.9256 183.92 83.1947 183.619 83.5984C183.251 84.0357 181.112 85.7857 174.293 91.2019C172.923 92.3115 171.753 93.32 171.686 93.4217C171.652 93.5562 174.393 95.1383 177.803 96.9549C181.179 98.7378 184.288 100.487 184.689 100.823L185.425 101.428L183.318 106.946C176.098 125.886 169.446 139.511 158.683 157.374C152.365 167.87 147.417 175.507 135.784 192.697C129.466 202.049 129.533 202.52 136.386 195.994C141.834 190.813 141.668 190.78 140.564 197.677C138.927 208.071 138.759 216.784 140.163 220.418C141.066 222.739 142.804 224.758 144.643 225.733C147.25 227.045 152.732 226.574 159.317 224.455C174.36 219.577 190.907 208.441 202.507 195.388C217.315 178.703 225.438 162.05 230.185 138.535C230.92 134.902 230.953 133.96 230.92 122.723C230.92 110.377 230.619 106.778 229.282 102.303C228.647 100.184 227.811 99.5115 225.738 99.5115C220.189 99.5119 203.576 107.349 194.049 114.414C192.88 115.288 191.844 115.961 191.776 115.894C191.71 115.827 192.545 113.035 193.648 109.738C195.855 103.077 198.629 92.9512 199.531 88.2078C199.866 86.4921 200.2 84.978 200.334 84.7761C200.436 84.6076 202.641 84.0359 205.214 83.5652C211.798 82.2871 220.487 80.3367 221.226 79.9324C222.228 79.3941 221.728 77.442 219.388 72.7322C206.485 46.5931 183.82 27.283 155.439 18.1326C148.52 15.9124 142.603 14.601 135.517 13.7263ZM109.323 104.202C109.352 104.242 115.46 112.702 116.101 114.326C115.348 121.217 109.342 155.98 109.323 156.086C104.642 144.876 98.5047 117.253 98.4863 117.171C98.4863 117.171 105.275 108.157 109.323 104.202ZM135.249 104.202C139.298 108.157 146.086 117.171 146.086 117.171C146.067 117.256 139.93 144.877 135.249 156.086C135.23 155.977 129.224 121.216 128.472 114.326C129.112 112.703 135.217 104.246 135.249 104.202ZM92.3682 58.3709C92.5357 58.3723 94.0669 60.2533 95.7314 62.5105C101.127 69.8023 107.788 76.67 114.749 82.033L118.679 85.0916L114.582 89.4666C112.317 91.8658 109.087 95.4885 107.389 97.5584C104.258 101.369 99.6614 109.131 98.2959 112.941L97.5635 115.011C93.6594 101.824 90.0075 84.0961 87.4297 72.2615C87.4301 70.4736 90.0705 66.038 91.6357 59.8758C91.8689 59.0761 92.1683 58.3709 92.3682 58.3709ZM152.204 58.3709C152.404 58.3709 152.704 59.076 152.938 59.8758C154.503 66.038 157.142 70.4736 157.143 72.2615C154.565 84.0961 150.913 101.824 147.009 115.011L146.276 112.941C144.911 109.131 140.314 101.369 137.184 97.5584C135.485 95.4885 132.255 91.8658 129.99 89.4666L125.894 85.0916L129.823 82.033C136.784 76.67 143.445 69.8023 148.841 62.5105C150.505 60.2536 152.036 58.3728 152.204 58.3709Z" fill="url(#paint1_radial_362_78)"/>
<defs>
<radialGradient id="paint0_radial_362_78" cx="0" cy="0" r="1" gradientUnits="userSpaceOnUse" gradientTransform="translate(389.763 93.0573) rotate(9.47635) scale(373.684 119.629)">
<stop stop-color="#CCA859"/>
<stop offset="0.5" stop-color="#BB9348"/>
<stop offset="1" stop-color="#876729"/>
</radialGradient>
<radialGradient id="paint1_radial_362_78" cx="0" cy="0" r="1" gradientUnits="userSpaceOnUse" gradientTransform="translate(44.8479 27.864) rotate(48.4922) scale(240.013 234.82)">
<stop stop-color="#CCA859"/>
<stop offset="0.5" stop-color="#BB9348"/>
<stop offset="1" stop-color="#876729"/>
</radialGradient>
</defs>
</svg>
